<svg id="Capa_1" data-name="Capa 1" xmlns="http://www.w3.org/2000/svg" viewBox="0 0 1920 1080">
<defs>
<style>
.cls-1{fill:none;stroke:#065d90;stroke-miterlimit:10;stroke-width:3px;}
.cls-2{fill:#065d90;}
.border{
        transform:translateX(-2);
        transform-origin: 50% 50%;
        stroke-width:5px;
        opacity: .5;
        stroke-linecap:round;
        stroke: #065d90;
        fill: none;
        stroke-dasharray: 500px 20px;
        stroke-dashoffset: 10px;
        animation: drawLine linear 20s infinite;
        }
        @keyframes drawLine{
            0%,100%{
                stroke-dashoffset: 10px;
            }
            50%{
                stroke-dashoffset: 3500px;
            }
        }
</style>
</defs>
<title>tecnm-bg1</title>
<path class="cls-1 border" d="M3.12,590.94c0-19.71,0-38.1,0-56.49.08-27.46.73-54.92.19-82.36-.47-23.79-.36-47.54,0-71.33.53-33.44-.41-66.9-.6-100.36-.19-35.16-.17-70.32-.35-105.49q-.45-87-1-173.95c-.1-15.83-1.5-13.63,12.92-13.64,83.47,0,167,.13,250.42-.32C273.35-13,276-10.17,277.73-2.42c6.31,29,13.32,57.88,19.88,86.84,1.3,5.75,4.18,9.16,9.82,11.25,13.46,5,26.84,10.27,39.95,16.12,5.88,2.63,9.73,1.46,14.22-2.6,24.1-21.8,48.59-43.17,72.54-65.13,5.35-4.91,9-4.71,14.48-.7q63.3,46.19,127,91.83c5.28,3.78,4.22,6.91,2.27,11.49C565.73,175.26,554,204,541.51,232.48c-2.81,6.44-2.24,11.18,1.84,16.56,8.08,10.67,16,21.47,23.44,32.61,3.81,5.74,7.9,7.77,14.94,7,30.26-3.47,60.63-6.06,90.89-9.53,8.08-.93,11.67,1.41,14.27,9.22q23.73,71.38,48.5,142.41c2.31,6.66.86,9.68-5,13.35-25.86,16.12-51.25,33-77,49.3-4.5,2.86-6.19,6-6.19,11.32,0,14.73-.36,29.49-1.27,44.2-.49,7.85,1.6,12.66,8.91,16.79,25.62,14.52,50.68,30,76.14,44.84,5.11,3,6.82,5.38,4.9,11.73q-21.76,71.93-42.41,144.19c-2.36,8.27-6.2,10.1-14.17,9.59-31.08-2-62.22-3.15-93.3-5.16-6.59-.42-10.64,1.36-14.19,6.71-7.6,11.44-15.43,22.74-23.63,33.75-3.47,4.65-3.58,8.44-1.27,13.66,12.56,28.42,24.72,57,37.08,85.54,1.9,4.39,3.4,7.63-1.87,11.68q-62.18,47.73-123.68,96.3c-6.48,5.12-10.22,4.24-15.93-1C419.55,996.4,396,976,373,955c-5.25-4.81-9.7-5.45-16.13-3-13.12,5-26.49,9.34-39.87,13.62-5.43,1.74-8,4.88-9.11,10.52-6.18,31.44-12.89,62.78-18.93,94.25-1.41,7.34-4.39,9.67-11.91,9.64q-133.76-.48-267.52-.28c-5.18,0-8.7,0-8.78-7.1C.08,1016-1,959.36-1.88,902.73c0-.54.46-1.08,1-2.36,19.4,12.12,40,21,62.54,25.29a160.67,160.67,0,0,0,59.86.33,23.81,23.81,0,0,1,17.12,2.67c31.36,17.35,65,17.57,98.65,9.71,39.2-9.16,76.34-23.28,102.85-56.17,14.63-18.15,22.54-39.3,27.12-61.87,1-4.77,1.58-8.76,8.47-8.29,36,2.44,70.68-26.84,74.94-72.52,2.17-23.25,1.51-46.09-6.16-68.31-1.8-5.2,1.42-7.6,4.34-10.06,10-8.44,21.83-12.82,34.68-14.54a118.57,118.57,0,0,1,60.13,7.59c9.83,3.91,12-.05,14.36-7.84,12.72-42.45,17.68-85.88,16.25-130C572.4,456.7,557.89,400.2,527,349.06,465.17,246.71,378.68,177.58,258.48,156.57c-47.33-8.27-94.83-5.5-142,2.81-3.37.6-6.86.73-6,5.86s3.54,6.83,8.9,6.92a361.55,361.55,0,0,1,106.42,17.72c42.91,14,82.46,34.37,119.77,59.81,25.73,17.55,33.6,43.85,40,71.51a123,123,0,0,1,1.81,12.89c.07.51-.38,1.09-.89,2.42-24.8-19-52.56-32.07-81.23-43.2-57-22.15-116.57-34.58-176.92-43.26-29.15-4.18-58.46-7.18-87.91-8.61-5.72-.27-11.44-1.51-10.15,7.17,1,6.58-5.15,16.39,9.79,16.25a561,561,0,0,1,148.83,18.42c1.29.34,2.63.57,3.88,1,5.67,2,13.56,2.5,16.39,6.53,3.22,4.59-5.14,8.22-7.36,13.14-6,13.21-6.36,12.88-20.71,7.84-45-15.8-91-27.3-138.89-29-4.31-.16-11.27-4-12.12,5.53-.71,7.87,2.3,10.93,10,12.62,39.48,8.7,78.76,18.3,118.27,26.86,7.8,1.69,9.93,5.07,9.05,12.05a25.18,25.18,0,0,0,0,3c0,12.74,0,12.77-12.14,10-37.77-8.51-75.51-17.09-113.3-25.47-3.86-.85-10-5.92-11.23,1.8-1,6.21-4.37,14.95,7.24,17.43,17,3.62,33.81,8.29,50.72,12.43,25.58,6.25,51.16,12.53,76.79,18.57,5.62,1.32,9.3,3.73,11.78,9.36,5.17,11.69,12.8,21.91,22.7,31.63-7.33,2.83-13.46,1-19.45.12-47.54-7.21-92.74-22.68-137.74-39-3.64-1.32-8.48-6.81-12.12-.81-4,6.61.34,20.23,6.5,22.34,34.15,11.72,68.85,21.53,103.9,30.17,7.7,1.89,15.34,4,23.95,6.32-8.12,8.78-15.52,14.63-28,14-31.1-1.7-62.27-1.92-93.41-2.68-11.9-.29-17.84,8.86-13.12,20,2,4.75,6.29,3.06,9.6,3.07,41.57.16,83.14.13,124.71.15,1.68,0,3.36,0,5,0,12.78,0,12.88,0,9.2,11.55-3.84,12-2.18,23.71,2,36.38-13.29-.88-25.56-1.6-37.82-2.52C109.13,515.2,75,513,41,509.71c-10.93-1-10.72,4.35-11,12.17-.35,8.44,1.45,11.53,10.9,11.19,23.75-.86,47.55-.28,71-.28Z"/>
<path class="cls-1 border" d="M159.66,811.39c.74-69.22,2.71-136.4,18.34-202.34,4.24-17.9,9.23-35.55,16-52.69,2-5,4.25-6.16,8.86-3.74a38.39,38.39,0,0,0,8.27,3.56c7.51,1.88,9.46,6.48,9.3,14-1,47.1,3.89,93.46,20.41,137.93,15,40.3,39,73.75,75.86,97.08a89.48,89.48,0,0,0,9.75,5.12c15,7.09,15,7,9.23,22.55-13.83,37.35-43.44,55.42-79.81,64.8-27.59,7.12-55.72,6.68-83.9,4.66-6.79-.49-9.29-3-9.8-10.48C160.28,864.38,160.86,836.9,159.66,811.39Z"/>
<path class="cls-1 border" d="M90.34,889.53c-18-1.27-40-1.81-61-9.86a108.48,108.48,0,0,1-18.9-9.25c-17-10.65-22.27-23.22-17.8-42.61C-1.45,802.13,10.4,778.92,23,756.12c41.43-74.87,91.72-143.82,142.62-212.34,1.56-2.09,2.8-4.85,5.86-5.06,1.93-.14,4.28-.18,5.79.77,2.44,1.53.26,3.55-.53,5.17-17.21,35.47-27.09,73.25-34.38,111.69A1818.77,1818.77,0,0,0,116,859.09c-.31,4-.79,8-1.11,12C113.42,889.67,113.44,889.67,90.34,889.53Z"/>
<path class="cls-1 border" d="M276.6,600.53c4.79,3,9.41,6.34,14.4,9,6.28,3.29,12.79,3.82,19.09-.34,7.66-5,9.36-11.75,3.26-18.5-27.75-30.69-21-63.42-5.41-96.11,6.27-13.11,16.87-22.61,33.12-22.25a9.38,9.38,0,0,1,2.92.55c.56.2,1,.84,1.82,1.64-3.27,4.79-11.73,8.66-3.77,16.17,6.25,5.89,19.94,6.6,27,.89a24,24,0,0,0,4.71-5.19c2.94-4.35,7.53-8.6,5.17-14.41-2.65-6.48-9-4.3-14.16-4.55-4-.2-8,0-12.07,0-3.21,0-6.48-1-7.2-4.26-.84-3.81,2.65-4.72,5.5-5.85,9.43-3.76,19.32-6.64,29.32-5.94,13.74,1,15.84-5.29,18.29-16.23.22-1,0-2.11.43-3,2.18-4.53-2.53-13.52,3.66-13.64,9.08-.18,18.31,4.1,24.81,11.54,4.62,5.27,4,11.47.15,16.68-6.8,9.22-12.63,20.71-27.92,14.26-4.08-1.72-5.72,2.2-6.1,5.87-.71,6.87,1.34,13.24,3.78,19.49,5.34,13.71,11.61,27.12,16,41.13,6.17,19.84-.24,29.09-20.51,32.18-10.54,1.62-15.12,8.45-11.25,18.27,2,5,1.93,6.9-3.94,7.92-7.88,1.36-6.26,8.14-5,12.91,1.61,6-.62,7.48-5.74,8.78-9.92,2.52-12.41,8.24-7.81,17.86,7.19,15,20.32,20.45,36.05,21.08,4.84.19,9.68,0,17.47,0-17,11.87-32.68,18.69-51,16.62-30.82-3.46-53-22.33-73.9-43-5.43-5.36-9.63-12-14.4-18Z"/>
<path class="cls-1 border" d="M240.94,578.28c9,17.37,17.34,34.17,28,49.64,25.71,37.3,58.81,62.06,106.56,60.71a126.71,126.71,0,0,0,41.19-7.86c6-2.27,7.91.1,8.49,5.07,4.51,38.73-2.92,73.3-34.87,99.28-5.46,4.44-11.16,4.77-17.79,3C307,770.9,270.27,725.88,252,663.19c-6.32-21.61-9.14-43.89-10.94-66.27C240.52,590.75,240.94,584.5,240.94,578.28Z"/>
<path class="cls-1 border" d="M498.68,499.75c10.18-28.39,6.35-43.31-14.54-62.59-19.37-17.87-42.92-28-67.3-36.48-4.6-1.61-7.38-3.06-6.07-9,7.58-34.54,4.15-67.79-12.73-99.26-.45-.83-.48-1.9-1-4.27,23,5.34,43.79,13.57,62.35,27,45.14,32.56,70.64,76,70.76,132.4C530.17,469.91,521,488.25,498.68,499.75Z"/>
<path class="cls-1 border" d="M135.86,542.81c-55.64,59.61-93.49,130-133.5,200.36-10.74-28.23-15.94-56.45-14.62-85.35.71-15.53,10.63-28,21.5-38.72,33.83-33.25,74.47-56.21,116.94-76.31C129,541.48,131.8,540.74,135.86,542.81Z"/>
<path class="cls-1 border" d="M240.71,457c23.34-.21,42.44,20,42.81,45.35.35,23.94-19.24,45.26-41.88,45.58-24.07.33-43.95-19.87-44.39-45.11C196.81,478.14,216.66,457.21,240.71,457Zm.08,73.25c16.82,0,28.46-12.1,28.35-29.41s-11.8-29.74-28.2-29.8c-16.8-.07-29.34,12.87-29.23,30.15C211.81,517.76,224.34,530.28,240.79,530.26Z"/>
<path class="cls-1 border" d="M295.41,474.28c-18.44-32.65-45.79-40.87-81-32.4,6-7.84,13.37-9.91,20.35-12.4,25.61-9.13,52-8.17,78.41-5.23a258.27,258.27,0,0,1,48.67,10c-13.31,3-25.94,5.76-37.46,11.92C312.6,452.51,303.44,461.59,295.41,474.28Z"/>
<path class="cls-1 border" d="M387.38,362.11C355.45,383.05,320.82,385.57,285.6,387c8.77-7.87,18.14-14.65,23.72-25.16S315,340,313.81,328.7c3.67-.64,6.28,1.2,8.91,2.45C343.77,341.13,364.76,351.25,387.38,362.11Z"/>
<path class="cls-1 border" d="M254.06,349.21c-16.43-.3-27.68-11.8-27.4-28a27,27,0,0,1,27.09-26.46c15.77.11,28.48,13,27.82,28.15C280.93,337.63,268.56,349.47,254.06,349.21Zm9.83-23.58c6.71-.79,10.52-4.33,10.13-11.14-.36-6.37-4.58-9.73-10.55-9.63-6.67.12-10.37,4.34-9.9,11.08C254,322.06,257.6,325.54,263.89,325.63Z"/>
<path class="cls-1 border" d="M202,367c18.12,26.49,43.87,37.47,75.24,37l.05,2.93c-14.06,2.44-28.31,4.1-41.88,8.73-4.89,1.67-7.67-1.16-10.56-3.66-13.93-12-23.42-26.86-27.32-45Z"/>
<path class="cls-1 border" d="M277.32,406.93l-.05-2.93c14.73-.14,29.49-.94,44.18-.28,22.3,1,43-4.12,63.56-14.74-.06,9.95-4.06,18.52-4,27.69,0,4.23-4.08,2.21-6.32,1.52C342.89,408.5,310.31,406,277.32,406.93Z"/>
<path class="cls-1 border" d="M283,584.7l-17.75-23.35c-3.06-4,.5-6.09,2.66-8.3,3.2-3.27,5.78-7.54,10.89-8.14.44,0,1.65,2.1,1.61,3.2-.35,12,2.25,23.68,5.68,35.23Z"/>
<path class="cls-1 border" d="M243.13,367c11.19,1,22.27-.1,33.42-1.63-9.68,10.41-21.36,10.14-33.72,6.31Z"/>
<path class="cls-1 border" d="M243.13,367l-.3,4.68c-12.35-4.1-20.4-12.49-24.86-24.49A59.72,59.72,0,0,0,243.13,367Z"/>
<path class="cls-1 border" d="M276.6,600.53l-3.21,1.59c-4.45-3.47-6.92-8.27-9.13-13.33C269.25,591.9,273.68,595.43,276.6,600.53Z"/>
<path class="cls-1 border" d="M202,367l-4.47,0c-1.34-3.75-3.19-7.41-1.9-12.6Z"/>
<path class="cls-1 border" d="M262.5,585.31a5.17,5.17,0,0,1-.94,1c-.14.08-.74-.22-.78-.41a4.27,4.27,0,0,1,.16-1.26Z"/>
<path class="cls-1 border" d="M223.3,507.78c10.82-3.92,21.67-2.72,32.51-3,0,1,0,2,.05,3Z"/>
</svg>